<svg xmlns="http://www.w3.org/2000/svg" width="125.139" height="112.209" viewBox="0 0 125.139 112.209">
  
  <g id="logo" transform="translate(-22.725 -21.054)">
    <path id="Path_2"   d="M96.851,97.895H59.265V90.258h27a15.206,15.206,0,0,0-14.307-13.4c-7.5-.569-14.311,4.627-16.448,12.552-2.32,8.6,1.052,18.491,7.53,22.086,7.566,4.2,17.136,1.69,24.128-6.6l6.754,3.657c-3.024,9.742-18.8,15.948-28.9,13.364A26.942,26.942,0,0,1,44.634,92.693c1.69-14.654,12.125-23.976,26.932-24.059,13.68-.077,23.46,8.959,25.5,24.35C96.946,95.1,96.9,96.5,96.851,97.895Z" fill="#fff"/>
    <path id="Path_3"   d="M98.986,92.993c2.288-24.689,26.242-29.022,40.487-20.115,5.563,3.479,8.519,8.619,8.251,14.925H135.4c-3.87-7.8-6.811-9.753-12.724-8.5-5.631,1.2-9.581,6.38-9.942,13.4-.3,5.9-.043,11.715,4.474,16.328,4.683,4.782,13.7,4.022,16.044-2.147,1.932-5.093,4.615-6.012,9.216-5.184a30.783,30.783,0,0,0,5.383.051c.3,11.031-8.557,19.558-20.926,20.522-15.447,1.2-26.061-7.718-27.828-24.244C99.1,95.814,99.042,94.4,98.986,92.993Z" fill="#fff"/>
    <path id="Path_4"   d="M27.61,112.851a3.634,3.634,0,0,1-.139-1.753,10.147,10.147,0,0,0-.987-3.23,3.444,3.444,0,0,1-.094-1.846,13.269,13.269,0,0,0,.439-4.062,137.288,137.288,0,0,1,4.576-57.187c1.148-3.786,4.668-6.852,7.094-10.25,8.306,6.7,10.165,17.411,5.056,29.283-2.49,5.786-6.22,11.347-7.262,17.378-1.8,10.391-2.266,21.057-2.644,31.631-.24,6.7.694,13.443,1.1,20.167l-1.227.28c-1.8-5.839-3.606-11.678-5.189-18.02A5.8,5.8,0,0,0,27.61,112.851Z" fill="#fff"/>
    <path id="Path_5"   d="M64.99,25.006A11.6,11.6,0,0,1,66.065,26c5.7,6.713,5.912,12.859.611,17.208-5.326,4.37-11.436,2.839-16.79-4.878.337-3.479.138-6.576,1.328-8.987C54.139,23.413,59.635,24.084,64.99,25.006Z" fill="#fff"/>
    <path id="Path_6"   d="M38.287,34.22c-2.214,3.7-5.734,6.768-6.882,10.554a137.288,137.288,0,0,0-4.576,57.187,10.9,10.9,0,0,1-.423,3.736C22.069,91.667,22.1,77.049,23.773,62.513c.978-8.479,3.277-16.861,5.636-25.1C30.524,33.52,33.747,31.524,38.287,34.22Z" fill="#fff"/>
    <path id="Path_7"   d="M64.9,24.659c-5.267-.575-10.763-1.246-13.689,4.682-1.19,2.411-.99,5.509-1.481,8.693-4.121-4.277-4.088-9.946.026-14.084C53.775,19.91,59.728,20.053,64.9,24.659Z" fill="#fff"/>
  </g>
</svg>
